HIERARCHY
ROOT Hips
{
	OFFSET 0.00000 0.00000 0.00000
	CHANNELS 6 Xposition Yposition Zposition Zrotation Yrotation Xrotation 
	JOINT LHipJoint
	{
		OFFSET 0 0 0
		CHANNELS 3 Zrotation Yrotation Xrotation
		JOINT LeftUpLeg
		{
			OFFSET 1.84395 -1.68683 0.74144
			CHANNELS 3 Zrotation Yrotation Xrotation
			JOINT LeftLeg
			{
				OFFSET 2.27037 -6.23779 0.00000
				CHANNELS 3 Zrotation Yrotation Xrotation
				JOINT LeftFoot
				{
					OFFSET 2.56918 -7.05877 0.00000
					CHANNELS 3 Zrotation Yrotation Xrotation
					JOINT LeftToeBase
					{
						OFFSET 0.22276 -0.61202 1.71784
						CHANNELS 3 Zrotation Yrotation Xrotation
						End Site
						{
							OFFSET 0.00000 -0.00000 0.91613
						}
					}
				}
			}
		}
	}
	JOINT RHipJoint
	{
		OFFSET 0 0 0
		CHANNELS 3 Zrotation Yrotation Xrotation
		JOINT RightUpLeg
		{
			OFFSET -1.76833 -1.68684 0.74144
			CHANNELS 3 Zrotation Yrotation Xrotation
			JOINT RightLeg
			{
				OFFSET -2.49360 -6.85110 0.00000
				CHANNELS 3 Zrotation Yrotation Xrotation
				JOINT RightFoot
				{
					OFFSET -2.55538 -7.02085 0.00000
					CHANNELS 3 Zrotation Yrotation Xrotation
					JOINT RightToeBase
					{
						OFFSET -0.21516 -0.59115 1.68050
						CHANNELS 3 Zrotation Yrotation Xrotation
						End Site
						{
							OFFSET -0.00000 -0.00000 0.89604
						}
					}
				}
			}
		}
	}
	JOINT LowerBack
	{
		OFFSET 0 0 0
		CHANNELS 3 Zrotation Yrotation Xrotation
		JOINT Spine
		{
			OFFSET 0.06382 1.72312 -0.19613
			CHANNELS 3 Zrotation Yrotation Xrotation
			JOINT Spine1
			{
				OFFSET -0.00055 1.73507 0.23859
				CHANNELS 3 Zrotation Yrotation Xrotation
				JOINT Neck
				{
					OFFSET 0 0 0
					CHANNELS 3 Zrotation Yrotation Xrotation
					JOINT Neck1
					{
						OFFSET 0.03638 1.65562 0.09633
						CHANNELS 3 Zrotation Yrotation Xrotation
						JOINT Head
						{
							OFFSET 0.06388 1.62807 -0.32386
							CHANNELS 3 Zrotation Yrotation Xrotation
							End Site
							{
								OFFSET 0.00995 1.67644 -0.12021
							}
						}
					}
				}
				JOINT LeftShoulder
				{
					OFFSET 0 0 0
					CHANNELS 3 Zrotation Yrotation Xrotation
					JOINT LeftArm
					{
						OFFSET 3.09648 1.42991 0.28122
						CHANNELS 3 Zrotation Yrotation Xrotation
						JOINT LeftForeArm
						{
							OFFSET 5.11878 -0.00000 -0.00000
							CHANNELS 3 Zrotation Yrotation Xrotation
							JOINT LeftHand
							{
								OFFSET 3.59971 -0.00000 0.00000
								CHANNELS 3 Zrotation Yrotation Xrotation
								JOINT LeftFingerBase
								{
									OFFSET 0 0 0
									CHANNELS 3 Zrotation Yrotation Xrotation
									JOINT LeftHandIndex1
									{
										OFFSET 0.62877 -0.00000 0.00000
										CHANNELS 3 Zrotation Yrotation Xrotation
										End Site
										{
											OFFSET 0.50693 -0.00000 0.00000
										}
									}
								}
								JOINT LThumb
								{
									OFFSET 0 0 0
									CHANNELS 3 Zrotation Yrotation Xrotation
									End Site
									{
										OFFSET 0.51467 -0.00000 0.51467
									}
								}
							}
						}
					}
				}
				JOINT RightShoulder
				{
					OFFSET 0 0 0
					CHANNELS 3 Zrotation Yrotation Xrotation
					JOINT RightArm
					{
						OFFSET -3.33565 1.14597 0.05047
						CHANNELS 3 Zrotation Yrotation Xrotation
						JOINT RightForeArm
						{
							OFFSET -5.49020 -0.00000 0.00000
							CHANNELS 3 Zrotation Yrotation Xrotation
							JOINT RightHand
							{
								OFFSET -3.20659 -0.00000 -0.00000
								CHANNELS 3 Zrotation Yrotation Xrotation
								JOINT RightFingerBase
								{
									OFFSET 0 0 0
									CHANNELS 3 Zrotation Yrotation Xrotation
									JOINT RightHandIndex1
									{
										OFFSET -0.69188 -0.00000 0.00000
										CHANNELS 3 Zrotation Yrotation Xrotation
										End Site
										{
											OFFSET -0.55781 -0.00000 0.00000
										}
									}
								}
								JOINT RThumb
								{
									OFFSET 0 0 0
									CHANNELS 3 Zrotation Yrotation Xrotation
									End Site
									{
										OFFSET -0.56633 -0.00000 0.56633
									}
								}
							}
						}
					}
				}
			}
		}
	}
}
MOTION
Frames: 7
Frame Time: .0083333
0.3913 17.5632 8.2412 -7.5198 6.8040 30.6758 0.0000 0.0000 0.0000 7.0368 -64.0591 -1.6522 0.1770 -2.7097 -7.4715 10.6355 33.7807 -73.2131 6.3777 14.7846 46.4792 0.0000 0.0000 0.0000 8.2989 42.7539 -13.5298 -0.0152 0.7949 -2.1847 1.1866 -31.7630 -39.0129 -2.5416 -9.9132 28.6960 8.2424 -1.6472 17.5164 3.2936 0.1589 -4.0977 -0.9810 -0.4535 -14.6204 -0.2348 -6.1692 -1.1207 7.6022 -8.2258 -0.9899 2.3569 -4.1187 0.2327 -0.0000 0.0000 0.0000 -51.7143 -45.1675 55.7864 99.0406 -59.6889 -67.8212 -0.0000 -0.0000 6.1857 25.3312 -10.6330 -4.9918 -7.1250 0.0000 -0.0000 -1.2214 18.2471 0.7777 -0.0000 0.0000 0.0000 50.8508 46.6054 39.5218 -143.1851 46.0654 -103.8934 0.0000 -0.0000 -6.2049 33.2289 -49.8444 -26.5967 7.1250 -0.0000 -0.0000 86.6162 -59.8376 -50.6526
0.3914 17.5625 8.2389 -7.4623 6.8614 30.7319 0.0000 0.0000 0.0000 7.2222 -64.1309 -1.8742 0.1770 -2.7097 -7.4715 10.6465 33.6981 -73.2005 6.4067 14.8112 46.5931 0.0000 0.0000 0.0000 8.2429 42.6547 -13.5411 -0.0166 0.8307 -2.2832 1.1450 -31.6781 -39.0783 -2.5939 -10.0067 28.9983 8.3628 -1.6112 17.4344 3.4012 0.2373 -4.0575 -0.9528 -0.4181 -14.5186 0.1991 -6.1835 -0.8718 6.9435 -8.2345 -1.0703 2.0810 -4.1307 0.1161 -0.0000 0.0000 0.0000 -51.6422 -44.8700 56.0862 100.0566 -59.6144 -68.6979 -0.0000 -0.0000 6.5880 26.7080 -10.0286 -5.0071 -7.1250 0.0000 -0.0000 -0.2140 18.7821 0.1337 -0.0000 0.0000 0.0000 51.5472 46.7804 39.5636 -143.7668 45.6729 -104.3109 0.0000 -0.0000 -6.4354 31.9269 -50.0088 -25.5189 7.1250 -0.0000 -0.0000 86.0379 -60.2620 -50.7267
0.3918 17.5626 8.2373 -7.4123 6.8918 30.7391 0.0000 0.0000 0.0000 7.2625 -64.1835 -1.9437 0.1773 -2.7123 -7.4787 10.6217 33.7182 -73.1608 6.3960 14.8014 46.5510 0.0000 0.0000 0.0000 8.2349 42.5779 -13.4777 -0.0179 0.8646 -2.3763 1.1141 -31.6132 -39.1243 -2.6366 -10.0821 29.2431 8.4524 -1.5966 17.4443 3.5387 0.2964 -4.0368 -0.8647 -0.3895 -14.4979 0.3786 -6.1725 -0.7232 6.4571 -8.2212 -0.9588 1.8988 -4.1234 0.0953 0.0000 0.0000 0.0000 -51.6636 -44.5724 56.2148 100.8962 -59.5466 -69.4220 -0.0000 -0.0000 6.8630 26.9177 -9.8008 -4.9395 -7.1250 0.0000 -0.0000 -0.0514 19.0154 0.0319 0.0000 0.0000 0.0000 52.5107 46.8388 39.8690 -144.0708 45.4643 -104.5280 0.0000 -0.0000 -6.6069 30.8043 -50.0199 -24.5540 7.1250 -0.0000 -0.0000 85.3343 -60.5913 -50.5081
0.3924 17.5628 8.2364 -7.3584 6.9286 30.7193 0.0000 0.0000 0.0000 7.2671 -64.2427 -1.9664 0.1777 -2.7156 -7.4879 10.5810 33.8080 -73.1191 6.3649 14.7728 46.4290 0.0000 0.0000 0.0000 8.2457 42.4940 -13.3934 -0.0189 0.8877 -2.4397 1.1048 -31.5910 -39.1338 -2.6305 -10.0715 29.2085 8.5868 -1.5696 17.4852 3.6418 0.3833 -4.0361 -0.8478 -0.3557 -14.5180 0.4823 -6.2073 -0.7620 6.0338 -8.2880 -0.5428 1.7368 -4.1453 0.2088 0.0000 -0.0000 0.0000 -51.7791 -44.3893 56.4954 101.5260 -59.4920 -69.9648 -0.0000 -0.0000 6.9043 26.7116 -9.6973 -4.8448 -7.1250 0.0000 -0.0000 -0.1914 19.1500 0.1180 0.0000 -0.0000 0.0000 53.2787 46.9966 40.1638 -144.1510 45.4089 -104.5852 0.0000 -0.0000 -6.8753 30.1817 -50.2503 -24.0918 7.1250 -0.0000 -0.0000 85.3054 -60.8422 -50.8852
0.3917 17.5621 8.2361 -7.3242 6.9402 30.7207 0.0000 0.0000 0.0000 7.3850 -64.2485 -2.0714 0.1802 -2.7340 -7.5390 10.5257 33.9282 -73.0624 6.3311 14.7417 46.2964 0.0000 0.0000 0.0000 8.2464 42.4578 -13.3599 -0.0194 0.8982 -2.4687 1.0930 -31.5701 -39.1578 -2.6210 -10.0547 29.1541 8.6672 -1.4995 17.4484 3.7343 0.5032 -4.0225 -0.8246 -0.3007 -14.4717 0.6681 -6.3245 -1.2388 5.4991 -8.4979 0.3907 1.5007 -4.2208 0.5493 -0.0000 -0.0000 0.0000 -51.9385 -44.3516 56.8695 101.9169 -59.4565 -70.3015 -0.0000 -0.0000 6.9454 26.7507 -9.8932 -4.9497 -7.1250 0.0000 -0.0000 -0.1755 18.9285 0.1091 -0.0000 -0.0000 0.0000 52.9587 47.8513 40.2025 -143.9038 45.5792 -104.4088 0.0000 -0.0000 -7.7252 29.7334 -50.9417 -23.9178 7.1250 -0.0000 -0.0000 86.1497 -61.1766 -52.3314
0.3902 17.5620 8.2341 -7.3069 6.9301 30.7390 0.0000 0.0000 0.0000 7.5556 -64.2241 -2.2285 0.1826 -2.7525 -7.5904 10.4619 34.0181 -72.9769 6.3247 14.7357 46.2712 0.0000 0.0000 0.0000 8.2460 42.4594 -13.3532 -0.0195 0.9019 -2.4788 1.0331 -31.4538 -39.2624 -2.6873 -10.1708 29.5316 8.6615 -1.4131 17.3497 3.8616 0.6196 -3.9836 -0.7148 -0.2354 -14.3576 0.8113 -6.2869 -1.5149 5.0282 -8.4702 0.8498 1.3133 -4.1943 0.7073 -0.0000 0.0000 0.0000 -52.1185 -44.3765 57.1851 102.1642 -59.4334 -70.5144 -0.0000 -0.0000 7.0411 27.0136 -10.2885 -5.2028 -7.1250 0.0000 -0.0000 -0.0145 18.4632 0.0092 -0.0000 0.0000 0.0000 53.3048 48.2069 40.2847 -143.4708 45.8737 -104.0988 0.0000 -0.0000 -9.2052 29.4386 -50.9946 -23.6801 7.1250 -0.0000 -0.0000 86.0521 -61.2791 -52.3890
0.3896 17.5634 8.2317 -7.2483 6.8845 30.7161 0.0000 0.0000 0.0000 7.4736 -64.2182 -2.2093 0.1827 -2.7534 -7.5930 10.4351 34.0127 -72.9230 6.3324 14.7429 46.3017 0.0000 0.0000 0.0000 8.2177 42.4592 -13.2967 -0.0197 0.9059 -2.4900 0.9864 -31.3749 -39.3629 -2.7337 -10.2510 29.7934 8.6254 -1.3467 17.3228 3.9419 0.7067 -3.9662 -0.6305 -0.1862 -14.3149 0.9524 -6.2804 -1.7689 4.4887 -8.4863 1.4904 1.1038 -4.1879 0.9162 -0.0000 0.0000 0.0000 -52.2734 -44.3041 57.5054 102.4275 -59.4083 -70.7411 -0.0000 -0.0000 7.0730 27.2003 -10.5106 -5.3559 -7.1250 0.0000 -0.0000 0.1023 18.1970 -0.0652 -0.0000 0.0000 0.0000 53.9397 48.2862 40.3231 -142.9173 46.2433 -103.7003 0.0000 -0.0000 -11.9053 28.9540 -51.0238 -23.2729 7.1250 -0.0000 -0.0000 85.7964 -61.4315 -52.3548
